<svg id="Laag_1" data-name="Laag 1" xmlns="http://www.w3.org/2000/svg" xmlns:xlink="http://www.w3.org/1999/xlink" viewBox="0 0 1024 223"><defs><style>.cls-1{fill:url(#linear-gradient);}.cls-2{fill:#fff;}.cls-3{opacity:0.4;fill:url(#linear-gradient-2);}.cls-4{fill:#0d5068;}</style><linearGradient id="linear-gradient" x1="213.77" y1="9.29" x2="8.1" y2="214.95" gradientUnits="userSpaceOnUse"><stop offset="0" stop-color="#fa6820"/><stop offset="1" stop-color="#fa2e48"/></linearGradient><linearGradient id="linear-gradient-2" x1="141.39" y1="81.6" x2="56.39" y2="166.59" gradientUnits="userSpaceOnUse"><stop offset="0" stop-color="#fa6820"/><stop offset="1" stop-color="#fa2e48" stop-opacity="0"/></linearGradient></defs><title>leadinfo-logo-1</title><path class="cls-1" d="M195.18,0H27.94A27.87,27.87,0,0,0,.07,27.87V195.13A27.87,27.87,0,0,0,27.94,223H195.18A27.86,27.86,0,0,0,223,195.13V27.87A27.86,27.86,0,0,0,195.18,0Z" transform="translate(-0.07)"/><polygon class="cls-2" points="111.48 111.5 167.23 111.5 167.23 167.25 55.74 167.25 55.74 55.75 111.48 55.75 111.48 111.5"/><rect class="cls-2" x="139.36" y="27.87" width="55.74" height="55.75"/><polygon class="cls-3" points="167.23 111.5 111.48 167.25 55.74 167.25 55.74 111.5 111.48 55.82 111.48 111.5 167.23 111.5"/><polygon class="cls-4" points="308.01 44.39 278.71 44.39 278.71 177.38 362.29 177.38 362.29 150.34 308.01 150.34 308.01 44.39"/><path class="cls-4" d="M454.11,96.89a37,37,0,0,0-13.52-9.67,45.18,45.18,0,0,0-17.75-3.38A57.63,57.63,0,0,0,403,87.22a47.67,47.67,0,0,0-16.15,9.67A45.46,45.46,0,0,0,376.07,112a47.8,47.8,0,0,0-3.94,19.72,47.8,47.8,0,0,0,3.94,19.72,45.31,45.31,0,0,0,10.8,15.12A47.69,47.69,0,0,0,403,176.26a57.63,57.63,0,0,0,19.82,3.38,51.24,51.24,0,0,0,21.41-4.7,44.9,44.9,0,0,0,17.09-13.33l-19.72-14.47a31.65,31.65,0,0,1-8.36,8,21.21,21.21,0,0,1-11.74,3.09,20.69,20.69,0,0,1-13.9-4.79,22.33,22.33,0,0,1-7.32-12.86h65.36v-8.83a61,61,0,0,0-3-19.72A44.1,44.1,0,0,0,454.11,96.89ZM400.3,121.41a17.94,17.94,0,0,1,1.59-6.48,16.94,16.94,0,0,1,3.95-5.45,20.74,20.74,0,0,1,6.1-3.85,21.22,21.22,0,0,1,8.27-1.5,16.7,16.7,0,0,1,12.58,5.07,16.32,16.32,0,0,1,4.7,12.21Z" transform="translate(-0.07)"/><path class="cls-4" d="M557.41,96.05a29.64,29.64,0,0,0-12.78-9.11q-8-3.1-20.37-3.1a65.8,65.8,0,0,0-21.79,3.66,51.77,51.77,0,0,0-18.41,11l15,15.4a34.52,34.52,0,0,1,10.23-8A27.61,27.61,0,0,1,522,103a19.33,19.33,0,0,1,12.68,4.41A14.67,14.67,0,0,1,540,119.34q-5.82,0-12.67.19a124.18,124.18,0,0,0-13.72,1.13,81.78,81.78,0,0,0-13.24,2.91A39.12,39.12,0,0,0,489,129.11a26.06,26.06,0,0,0-7.89,9,28,28,0,0,0-2.91,13.33,27,27,0,0,0,2.63,12.21A25.75,25.75,0,0,0,488,172.5a30.82,30.82,0,0,0,10.42,5.35,42.36,42.36,0,0,0,12.3,1.79,43.14,43.14,0,0,0,16.44-3.19,26.6,26.6,0,0,0,12.49-10.52H540v11.46H566V131a96.86,96.86,0,0,0-1.88-20.19A35.1,35.1,0,0,0,557.41,96.05ZM540,143.39a15.14,15.14,0,0,1-1.78,7.51,15.49,15.49,0,0,1-4.79,5.26,23.77,23.77,0,0,1-6.86,3.19,28.34,28.34,0,0,1-8,1.13,18,18,0,0,1-9-2.44,8,8,0,0,1-4.32-7.52,9.1,9.1,0,0,1,3.09-7.32,20.52,20.52,0,0,1,7.52-3.95,40.35,40.35,0,0,1,9.2-1.59q4.78-.28,8-.29H540Z" transform="translate(-0.07)"/><path class="cls-4" d="M651.22,95.86h-.38a26.33,26.33,0,0,0-12.49-9.3,48.54,48.54,0,0,0-16.43-2.72,37.07,37.07,0,0,0-17.47,4,40.36,40.36,0,0,0-13.05,10.8,50.39,50.39,0,0,0-8.27,15.49,57.61,57.61,0,0,0-2.91,18.32,54.07,54.07,0,0,0,3.2,19,43.42,43.42,0,0,0,9.11,14.94,40.86,40.86,0,0,0,14.18,9.76,46.92,46.92,0,0,0,18.4,3.48,31.62,31.62,0,0,0,9.11-1.32,38.65,38.65,0,0,0,8.08-3.38,32.92,32.92,0,0,0,6.38-4.6,31,31,0,0,0,4.42-5h.37v12h25.92v-142H651.22Zm-3.66,52.6q-5.92,6.39-16.63,6.38t-16.62-6.38q-5.91-6.39-5.92-16.72T614.31,115q5.93-6.37,16.62-6.39T647.56,115q5.91,6.39,5.91,16.72T647.56,148.46Z" transform="translate(-0.07)"/><rect class="cls-4" x="700.21" y="86.09" width="28.17" height="91.29"/><path class="cls-4" d="M830.34,96.24a25,25,0,0,0-10.23-9.11q-6.58-3.28-17.28-3.29a32.34,32.34,0,0,0-9.39,1.31,33.26,33.26,0,0,0-7.7,3.39,27.11,27.11,0,0,0-5.82,4.69,22.81,22.81,0,0,0-3.76,5.26h-.38V86.09h-27v91.3h28.17V131.93a64.77,64.77,0,0,1,.56-8.64,21.54,21.54,0,0,1,2.35-7.42,13.4,13.4,0,0,1,5.17-5.26,17.3,17.3,0,0,1,8.82-2c3.63,0,6.42.76,8.36,2.26a13.5,13.5,0,0,1,4.32,5.82,25.84,25.84,0,0,1,1.69,7.8c.19,2.81.28,5.54.28,8.17v44.71h28.18V127A103.75,103.75,0,0,0,835.32,110,36.74,36.74,0,0,0,830.34,96.24Z" transform="translate(-0.07)"/><path class="cls-4" d="M902,35.14q-11.44,0-18.5,2.91a25,25,0,0,0-10.8,8,28.87,28.87,0,0,0-5.07,11.74A73.7,73.7,0,0,0,866.31,72V86.09h-18.6v22.54h18.6v68.76h28.17V108.63h20.85V86.09H894.48V73.65q0-9,3.38-11.93T908,58.81a21.45,21.45,0,0,1,4.69.47,32.2,32.2,0,0,1,4.51,1.41l1.31-23.86a58,58,0,0,0-8.07-1.31Q906.31,35.15,902,35.14Z" transform="translate(-0.07)"/><path class="cls-4" d="M1020.13,112a45.46,45.46,0,0,0-10.8-15.13,47.67,47.67,0,0,0-16.15-9.67,59.77,59.77,0,0,0-39.63,0,47.67,47.67,0,0,0-16.15,9.67A45.31,45.31,0,0,0,926.6,112a47.8,47.8,0,0,0-4,19.72,47.8,47.8,0,0,0,4,19.72,45.17,45.17,0,0,0,10.8,15.12,47.69,47.69,0,0,0,16.15,9.68,59.77,59.77,0,0,0,39.63,0,47.69,47.69,0,0,0,16.15-9.68,45.31,45.31,0,0,0,10.8-15.12,47.8,47.8,0,0,0,3.94-19.72A47.8,47.8,0,0,0,1020.13,112ZM990,148.46q-5.93,6.39-16.63,6.38t-16.62-6.38q-5.91-6.39-5.91-16.72T956.74,115q5.93-6.37,16.62-6.39T990,115q5.91,6.39,5.91,16.72T990,148.46Z" transform="translate(-0.07)"/><rect class="cls-4" x="700.21" y="35.37" width="28.17" height="28.18"/></svg>